<?xml version="1.0" standalone="no"?>
<!DOCTYPE svg PUBLIC "-//W3C//DTD SVG 1.1//EN" "http://www.w3.org/Graphics/SVG/1.1/DTD/svg11.dtd" >
<svg xmlns="http://www.w3.org/2000/svg">
<metadata>Generated by IcoMoon</metadata>
<defs>
<font id="icomoon" horiz-adv-x="1024">
<font-face units-per-em="1024" ascent="960" descent="-64" />
<missing-glyph horiz-adv-x="1024" />
<glyph unicode="&#x20;" horiz-adv-x="512" d="" />
<glyph unicode="&#xe8f3;" glyph-name="Client_1" horiz-adv-x="1892" d="M779.13 684.932l78-73.842-144.782 0.086v-358.259h378.435v136.979l77.913-73.758v368.794h-389.565zM1087.359 398.564l-221.16 209.368h221.16v-209.368zM1018.692 305.322h-246.461v240.947h17.421v-224.631h229.040v-16.316zM830.429 205.22l-9.104-18.749-9.104 18.749h-7.635l13.289-24.999v-14.565h6.902v14.565l13.261 24.999h-7.609zM841.869 165.655l3.207 9.212h15.327l3.233-9.212h7.174l-14.973 39.564h-6.168l-14.946-39.564h7.147zM852.739 196.823l5.733-16.413h-11.468l5.734 16.413zM888.989 181.362c-0.996-1.522-1.495-3.198-1.495-5.028 0-3.334 1.169-6.042 3.506-8.125 2.355-2.065 5.488-3.098 9.402-3.098s7.283 1.060 10.109 3.18l2.228-2.636h7.663l-5.816 6.874c2.283 3.117 3.424 7.111 3.424 11.984h-5.733c0-2.664-0.552-5.082-1.657-7.256l-7.637 9.022 2.69 1.957c1.902 1.377 3.27 2.754 4.104 4.131 0.834 1.395 1.25 2.916 1.25 4.565 0 2.5-0.924 4.592-2.771 6.278-1.83 1.703-4.185 2.554-7.066 2.554-3.189 0-5.724-0.906-7.609-2.718-1.884-1.793-2.826-4.238-2.826-7.336 0-1.269 0.299-2.582 0.897-3.941 0.616-1.358 1.694-3.006 3.233-4.945-2.935-2.101-4.901-3.922-5.897-5.462zM906.842 172.612c-1.938-1.486-4.021-2.228-6.25-2.228-1.975 0-3.551 0.57-4.728 1.712-1.178 1.141-1.766 2.627-1.766 4.457 0 2.119 1.087 4.004 3.261 5.652l0.843 0.598 8.641-10.19zM899.75 190.139c-1.865 2.301-2.799 4.212-2.799 5.733 0 1.322 0.381 2.419 1.142 3.288 0.76 0.869 1.784 1.304 3.071 1.304 1.195 0 2.183-0.372 2.962-1.114 0.779-0.725 1.169-1.603 1.169-2.636 0-1.558-0.562-2.835-1.685-3.832l-0.843-0.679-3.016-2.065zM964.152 168.644c2.718 2.373 4.276 5.671 4.675 9.892h-6.849c-0.362-2.826-1.222-4.846-2.581-6.061-1.359-1.213-3.388-1.82-6.087-1.82-2.953 0-5.199 1.123-6.738 3.369-1.523 2.246-2.283 5.507-2.283 9.783v3.506c0.036 4.221 0.851 7.418 2.445 9.592 1.613 2.192 3.913 3.288 6.902 3.288 2.572 0 4.52-0.634 5.842-1.902 1.341-1.25 2.174-3.297 2.5-6.142h6.849c-0.435 4.33-1.985 7.681-4.647 10.054-2.664 2.374-6.177 3.561-10.544 3.561-3.242 0-6.105-0.77-8.587-2.31-2.463-1.54-4.356-3.732-5.679-6.577s-1.983-6.132-1.983-9.864v-3.695c0.053-3.642 0.733-6.84 2.038-9.592 1.304-2.754 3.152-4.883 5.543-6.387 2.41-1.485 5.19-2.228 8.342-2.228 4.511 0 8.125 1.178 10.842 3.533zM1004.56 174.188c1.341 2.934 2.011 6.34 2.011 10.217v2.202c-0.018 3.859-0.707 7.237-2.066 10.135-1.358 2.917-3.288 5.146-5.788 6.685-2.482 1.558-5.335 2.337-8.559 2.337s-6.087-0.788-8.587-2.364c-2.482-1.558-4.411-3.813-5.788-6.766-1.359-2.953-2.038-6.359-2.038-10.218v-2.228c0.018-3.787 0.706-7.129 2.065-10.027 1.377-2.898 3.316-5.136 5.816-6.712 2.518-1.558 5.38-2.337 8.587-2.337 3.242 0 6.105 0.779 8.586 2.337 2.5 1.576 4.421 3.822 5.761 6.739zM997.196 196.551c1.666-2.336 2.5-5.697 2.5-10.081v-2.066c0-4.457-0.825-7.844-2.473-10.163-1.629-2.318-3.967-3.478-7.010-3.478-3.007 0-5.363 1.188-7.066 3.561-1.685 2.373-2.528 5.733-2.528 10.081v2.283c0.037 4.257 0.888 7.545 2.554 9.864 1.685 2.337 4.013 3.506 6.984 3.506 3.043 0 5.389-1.169 7.038-3.506z" />
<glyph unicode="&#xe900;" d="M984.741 252.877l-270.182 272.162 29.986 147.696c7.739-3.021 15.964-4.599 24.269-4.659h0.205c38.153-0.451 69.446 30.111 69.9 68.264 0.452 38.153-30.113 69.446-68.266 69.898-38.153 0.451-69.446-30.111-69.898-68.264-0.097-8.164 1.254-16.28 3.992-23.972l-158.72-19.371-258.902 260.25c-3.176 3.241-7.512 5.084-12.048 5.12-4.481-0.023-8.771-1.807-11.947-4.966l-48.402-48.128c-6.662-6.664-6.662-17.468 0-24.132l26.045-26.419c-100.899-185.533-68.127-415.289 80.622-565.213 1.365-1.306 2.948-2.363 4.677-3.123-1.075-5.775-1.637-11.636-1.674-17.51v-197.974h-204.8c-47.104-0.056-85.278-38.229-85.333-85.333v-34.133c0-9.425 7.642-17.067 17.067-17.067h785.066c9.425 0 17.067 7.642 17.067 17.067v34.133c-0.056 47.104-38.229 85.277-85.333 85.333h-204.8v87.741c32.082-6.729 64.771-10.16 97.552-10.24 78.661 0.085 156.069 19.694 225.28 57.070l26.181-26.334c3.176-3.24 7.512-5.083 12.050-5.12 4.479 0.023 8.77 1.808 11.946 4.966l48.402 48.128c6.662 6.665 6.662 17.468 0 24.133zM744.954 760.542c13.366 13.294 34.978 13.234 48.271-0.13 13.294-13.366 13.234-34.978-0.13-48.271-6.399-6.363-15.054-9.934-24.079-9.933h-0.102c-18.85 0.098-34.055 15.458-33.957 34.31 0.048 9.024 3.666 17.66 10.063 24.025h-0.066zM704.78 648.397l-19.149-94.259-37.614 37.837 56.763 56.422zM685.392 677.256l-61.44-61.082-47.531 47.787 108.971 13.294zM768.132 38.4c28.277 0 51.2-22.923 51.2-51.2v-17.067h-750.934v17.067c0 28.277 22.923 51.2 51.2 51.2h648.534zM529.197 106.667v-34.134h-170.666v34.134h170.666zM358.532 140.8v129.707c0 41.403 38.28 75.093 85.333 75.093s85.333-33.69 85.333-75.093v-129.707h-170.666zM563.332 195.072v75.435c0 60.227-53.59 109.226-119.467 109.226-42.594 0.654-82.423-21.027-104.994-57.155-129.848 136.761-159.087 340.645-72.916 508.388l595.259-598.671c-91.917-46.759-197.285-59.923-297.882-37.222zM924.581 216.952l-673.826 677.785 24.149 24.064 253.918-255.352c0.118 0 0.187-0.222 0.307-0.307l419.669-422.126-24.218-24.064z" />
<glyph unicode="&#xe901;" d="M444.018 311.467h-0.154c-28.277 0.042-51.234-22.845-51.278-51.124-0.042-28.277 22.847-51.234 51.124-51.276h0.154c28.277-0.042 51.234 22.845 51.276 51.122 0.044 28.278-22.845 51.235-51.122 51.278zM455.965 248.166c-3.214-3.195-7.567-4.984-12.101-4.966-9.425 0.050-17.026 7.73-16.978 17.155 0.025 4.511 1.833 8.83 5.031 12.012 3.177 3.16 7.466 4.943 11.947 4.966 9.425-0.048 17.026-7.728 16.976-17.153-0.023-4.511-1.831-8.83-5.029-12.013h0.154z" />
<glyph unicode="&#xe902;" d="M1023.171 815.23c-2.014 6.162-7.339 10.666-13.773 11.606l-61.133 8.892-27.358 55.399c-5.734 11.674-24.867 11.674-30.6 0l-27.358-55.399-61.136-8.894c-6.434-0.938-11.758-5.428-13.79-11.606-1.995-6.179-0.342-12.971 4.318-17.494l44.254-43.129-10.443-60.894c-1.093-6.4 1.536-12.869 6.776-16.693 5.307-3.858 12.235-4.334 17.987-1.296l54.683 28.758 54.683-28.758c2.493-1.314 5.24-1.962 7.954-1.962 3.533 0 7.067 1.091 10.037 3.259 5.256 3.822 7.885 10.293 6.776 16.693l-10.443 60.896 44.254 43.128c4.636 4.541 6.309 11.317 4.313 17.494zM944.356 772.767c-4.010-3.909-5.853-9.574-4.898-15.104l6.11-35.653-32.016 16.827c-2.493 1.315-5.222 1.963-7.955 1.963-2.73 0-5.443-0.648-7.954-1.963l-32.019-16.827 6.11 35.653c0.957 5.53-0.888 11.178-4.898 15.104l-25.925 25.258 35.806 5.206c5.565 0.802 10.36 4.301 12.853 9.336l16.008 32.427 16.008-32.427c2.493-5.034 7.288-8.534 12.853-9.336l35.806-5.206-25.891-25.258z" />
<glyph unicode="&#xe903;" d="M836.272 303.29h-34.134v-34.134h34.134v34.134z" />
<glyph unicode="&#xe904;" d="M836.272 235.021h-34.134v-34.134h34.134v34.134z" />
<glyph unicode="&#xe905;" d="M870.406 269.155h-34.134v-34.134h34.134v34.134z" />
<glyph unicode="&#xe906;" d="M802.139 269.155h-34.134v-34.134h34.134v34.134z" />
<glyph unicode="&#xe907;" d="M716.803 115.553h-34.134v-34.134h34.134v34.134z" />
<glyph unicode="&#xe908;" d="M716.803 47.285h-34.134v-34.134h34.134v34.134z" />
<glyph unicode="&#xe909;" d="M750.939 81.418h-34.136v-34.134h34.136v34.134z" />
<glyph unicode="&#xe90a;" d="M682.669 81.418h-34.134v-34.134h34.134v34.134z" />
<glyph unicode="&#xe90b;" d="M512 183.82h-34.134v-34.134h34.134v34.134z" />
<glyph unicode="&#xe90c;" d="M512 115.553h-34.134v-34.134h34.134v34.134z" />
<glyph unicode="&#xe90d;" d="M546.134 149.687h-34.134v-34.134h34.134v34.134z" />
<glyph unicode="&#xe90e;" d="M477.866 149.687h-34.134v-34.134h34.134v34.134z" />
<glyph unicode="&#xe90f;" d="M187.728 764.097h-34.134v-34.134h34.134v34.134z" />
<glyph unicode="&#xe910;" d="M187.728 695.827h-34.134v-34.134h34.134v34.134z" />
<glyph unicode="&#xe911;" d="M221.861 729.961h-34.134v-34.134h34.134v34.134z" />
<glyph unicode="&#xe912;" d="M153.594 729.961h-34.134v-34.134h34.134v34.134z" />
<glyph unicode="&#xe913;" d="M790.872 506.898c-9.197 12.408-22.698 20.394-38.024 22.546-15.394 2.184-30.584-1.859-42.872-11.264l-40.075-30.72-60.725-45.347-43.453 17.306c77.483 34.765 131.638 112.267 131.638 202.244 0 122.336-99.928 221.869-222.758 221.869s-222.755-99.533-222.755-221.869c0-44.341 13.259-85.574 35.84-120.27l-88.441 0.768c-0.051 0-0.102 0-0.154 0-0.274 0-0.494-0.136-0.75-0.154-1.69-0.069-3.346-0.411-4.966-0.99-0.41-0.154-0.835-0.24-1.227-0.426-0.205-0.086-0.41-0.102-0.614-0.205l-103.459-51.080c-0.018 0-0.034 0-0.034-0.016l-60.589-29.137c-0.666-0.29-1.348-0.682-2.014-1.126-24.15-16.075-32.376-47.65-19.148-73.454 7.048-13.722 19.046-23.827 33.793-28.451 5.684-1.773 11.486-2.645 17.254-2.645 9.268 0 18.45 2.269 26.862 6.757l44.409 23.621 72.448 37.411 43.419 0.256-174.134-173.299c-0.016-0.018-0.034-0.018-0.052-0.034l-42.839-42.667c-10.12-10.070-15.684-23.432-15.684-37.685 0-14.234 5.564-27.63 15.684-37.718 10.394-10.342 24.064-15.531 37.735-15.531 13.688 0 27.34 5.189 37.769 15.531l42.053 41.883 55.706 41.592 28.827-28.706-56.373-56.134c-0.016-0.018-0.035-0.018-0.053-0.034l-42.838-42.666c-10.12-10.070-15.684-23.434-15.684-37.685 0-14.235 5.564-27.63 15.684-37.72 10.394-10.341 24.082-15.53 37.752-15.53s27.358 5.189 37.77 15.53l111.411 110.934c0.018 0.018 0.018 0.034 0.034 0.053l32.309 32-0.12 0.12c0.205 0.203 0.494 0.274 0.701 0.494l165.31 181.062 111.072-15.805c0.802-0.12 1.603-0.17 2.406-0.17 2.066 0 4.062 0.494 5.99 1.229 0.563 0.203 1.058 0.477 1.587 0.749 0.614 0.309 1.262 0.478 1.845 0.87l102.827 68.267c0.376 0.256 0.581 0.666 0.938 0.938 0.41 0.325 0.923 0.461 1.296 0.821l40.686 38.11c21.17 19.836 24.089 52.331 6.782 75.576zM68.173 391.355c-5.546-2.97-11.844-3.566-17.868-1.656-5.974 1.859-10.82 5.941-13.654 11.453-5.154 10.035-2.168 22.256 6.86 28.859l42.037 20.225 14.37-42.002-31.744-16.88zM180.081 449.842l-49.545-25.6-14.044 41.064 64.856 32.019-1.267-47.483zM663.262 661.696c0-29.389-7.014-57.107-19.166-81.904l-133.805 60.776c-1.4 18.346-10.922 34.406-25.224 44.408l46.849 155.531c76.085-24.202 131.346-95.183 131.346-178.81zM286.016 661.696c0 103.512 84.618 187.737 188.624 187.737 8.090 0 16.008-0.682 23.842-1.672l-45.824-152.119c-0.614 0.019-1.195 0.189-1.827 0.189-33.042 0-59.923-26.795-59.923-59.734s26.881-59.736 59.923-59.736c22.221 0 41.421 12.27 51.781 30.227l123.598-56.152c-34.39-46.285-89.432-76.477-151.572-76.477-104.003 0-188.621 84.225-188.621 187.737zM476.619 636.096c0-14.115-11.573-25.601-25.789-25.601s-25.787 11.486-25.787 25.601c0 14.114 11.571 25.6 25.787 25.6s25.789-11.486 25.789-25.6zM78.875 155.319c-7.56-7.491-19.798-7.475-27.34-0.018-3.636 3.637-5.632 8.43-5.632 13.534 0 5.086 1.996 9.882 5.632 13.482l30.786 30.672 27.239-27.121-30.685-30.549zM181.719 35.85c-7.56-7.493-19.814-7.51-27.358-0.019-3.637 3.637-5.632 8.43-5.632 13.534 0 5.086 1.995 9.883 5.632 13.483l30.806 30.686 27.256-27.121-30.704-30.563zM293.133 146.853c-0.019-0.016-0.035-0.016-0.053-0.034l-56.475-56.321-27.256 27.121 56.422 56.166c0 0 0 0 0 0.016 0.019 0.018 0.034 0.018 0.053 0.034 1.28 1.28 2.082 2.816 2.867 4.334 0.222 0.443 0.648 0.819 0.837 1.28 0.53 1.314 0.614 2.73 0.819 4.114 0.102 0.787 0.445 1.518 0.445 2.323 0 1.144-0.41 2.251-0.648 3.379-0.205 1.024-0.205 2.066-0.598 3.054-0.648 1.603-1.758 3.019-2.918 4.403-0.323 0.376-0.443 0.854-0.802 1.213 0 0 0 0-0.018 0-0.018 0.016-0.018 0.053-0.034 0.067l-51.424 51.201c-0.546 0.546-1.245 0.768-1.859 1.227-0.904 0.701-1.774 1.349-2.782 1.845-0.971 0.478-1.962 0.768-2.986 1.042-1.093 0.309-2.15 0.547-3.294 0.632-1.042 0.069-2.014-0.034-3.054-0.154-1.144-0.136-2.218-0.29-3.328-0.648-1.075-0.342-2.030-0.87-3.019-1.434-0.632-0.358-1.349-0.478-1.947-0.922l-56.746-42.361-28.826 28.707 76.768 76.357 139.539-137.236-29.681-29.406zM511.334 371.387c-0.494 0.067-0.957-0.12-1.45-0.086-1.246 0.067-2.44-0.018-3.686-0.222-0.973-0.17-1.894-0.358-2.816-0.682-1.093-0.376-2.082-0.888-3.091-1.502-0.955-0.579-1.826-1.194-2.661-1.962-0.411-0.358-0.904-0.53-1.28-0.938l-150.345-164.664-138.497 136.212 90.659 90.182c6.674 6.656 6.709 17.459 0.051 24.15-3.362 3.362-7.781 5.018-12.202 5v0.016l-70.998-0.427 0.888 51.44 99.329-0.854c40.482-41.405 96.939-67.227 159.405-67.227 13.994 0 27.648 1.45 40.942 3.926 1.28-1.024 2.541-2.067 4.147-2.715l77.11-30.72 4.88-24.269 5.699-28.33-96.085 13.67zM640.65 365.686l-10.018 49.853 46.285 34.561 30.294-40.21-66.561-44.205zM760.766 456.278l-26.813-25.123-29.798 39.562 26.606 20.394c4.966 3.822 11.23 5.376 17.374 4.574 6.178-0.87 11.64-4.096 15.36-9.096 6.931-9.336 5.752-22.358-2.73-30.31z" />
<glyph unicode="&#xe914;" d="M435.266 366.591l-68.574 68.267c-6.638 6.638-17.427 6.638-24.083 0l-68.557-68.267c-3.208-3.226-5.018-7.56-5.018-12.099 0-4.541 1.792-8.893 5.018-12.101l68.557-68.267c3.328-3.31 7.699-4.966 12.051-4.966s8.72 1.656 12.032 4.966l68.574 68.267c3.208 3.208 5.035 7.56 5.035 12.101 0 4.539-1.811 8.891-5.035 12.099zM354.659 310.304l-44.374 44.187 44.374 44.186 44.39-44.186-44.39-44.187z" />
<glyph unicode="&#xe915;" d="M549.256 797.735l-8.243-33.145c2.27-0.563 55.605-14.456 55.605-68.763h34.134c-0.001 64.55-53.301 94.894-81.496 101.908z" />
<glyph unicode="&#xe916;" d="M630.752 661.696h-34.134v-34.134h34.134v34.134z" />
<glyph unicode="&#xe918;" glyph-name="Client_2" horiz-adv-x="1892" d="M913.96 696.791h-1.52c-2.336 0.142-4.674 0.198-7.011 0.255v0h-5.068c-4.421 0-8.927-0.112-13.403-0.339-0.337 0.024-0.676 0.024-1.013 0-40.564-2.298-80.305-12.436-117.049-29.861l-4.815-2.321v-246.44l11.263 3.821c9.883 3.396 20.413 6.453 31.31 9.284 29.457 7.562 59.703 11.58 90.103 11.972v-32.38c-4.027-0.028-7.94-0.141-11.854-0.339h-0.929c-23.396-1.283-46.612-4.847-69.323-10.642-28.762-7.201-56.509-18.013-82.584-32.181v316.068c27.081 15.795 56.25 27.659 86.639 35.238 26.681 6.889 54.108 10.426 81.655 10.529h4.758c5.688-0.141 11.235-0.396 16.444-0.792 13.724-0.964 27.337-3.133 40.686-6.482v-31.87c-12.964 3.021-26.144 5.008-39.42 5.944-0.269 0.023-0.539 0.046-0.808 0.069-2.747 0.235-5.497 0.469-8.062 0.469zM970.049 664.214c7.067-0.538 14.388-0.792 21.793-0.792 28.958 0.106 57.793 3.803 85.85 11.010 28.749 7.228 56.488 18.049 82.556 32.209v-310.435c-27.091-15.786-56.272-27.65-86.666-35.239-26.685-6.862-54.111-10.389-81.655-10.5-20.871-0.168-41.68 2.285-61.945 7.303v312.445c4.786-1.104 9.714-2.123 14.726-2.972 8.222-1.387 16.895-2.406 25.342-3.029zM1128.036 661.808l-11.264-3.792c-10.36-3.482-20.806-6.595-31.309-9.368-30.578-7.858-62.004-11.888-93.566-12.001-7.348 0-14.106 0.198-20.638 0.622l-8.982 0.594v-253.516l7.715-0.68c7.152-0.622 14.53-0.934 21.963-0.934 24.86 0.106 49.611 3.31 73.687 9.539 19.824 4.973 39.112 11.903 57.576 20.69l4.819 2.321v246.525zM753.943 259.612c-1.618 1.68-3.571 2.997-5.729 3.871s-4.476 1.28-6.801 1.195c-2.478 0.032-4.937-0.43-7.236-1.359-2.108-0.839-4.024-2.101-5.632-3.708-1.589-1.612-2.827-3.541-3.632-5.661-0.883-2.223-1.323-4.598-1.296-6.991v-42.229c-0.1-2.976 0.467-5.936 1.662-8.662 0.996-2.164 2.435-4.093 4.223-5.66 1.688-1.421 3.67-2.446 5.801-3.001 2.052-0.577 4.175-0.873 6.307-0.877 2.352-0.023 4.679 0.479 6.814 1.471 2.11 0.924 4.024 2.251 5.632 3.906 1.567 1.641 2.818 3.561 3.688 5.661 0.903 2.129 1.362 4.422 1.352 6.736v4.727h-11.038v-3.764c0.033-1.286-0.187-2.564-0.648-3.764-0.36-0.899-0.906-1.71-1.605-2.377-0.683-0.553-1.467-0.966-2.308-1.218-0.746-0.248-1.524-0.382-2.308-0.396-0.986-0.115-1.983 0.035-2.894 0.432-0.909 0.398-1.699 1.030-2.287 1.833-1.041 1.696-1.55 3.669-1.464 5.66v39.371c-0.069 2.184 0.395 4.351 1.351 6.312 0.573 0.892 1.384 1.603 2.34 2.054s2.018 0.621 3.066 0.494c0.952 0.033 1.897-0.165 2.755-0.579s1.604-1.032 2.173-1.799c1.235-1.622 1.881-3.62 1.83-5.661v-3.652h10.926v4.303c0.021 2.527-0.437 5.033-1.352 7.387-0.815 2.212-2.070 4.234-3.689 5.944v0zM819.522 260.094c-3.519 2.972-7.962 4.614-12.557 4.641-2.248-0.010-4.478-0.412-6.589-1.189-2.144-0.768-4.122-1.94-5.828-3.453-1.829-1.644-3.288-3.661-4.281-5.916-1.112-2.58-1.658-5.369-1.605-8.18v-40.503c-0.076-2.849 0.472-5.681 1.605-8.293 1-2.178 2.46-4.11 4.281-5.661 1.687-1.566 3.669-2.779 5.828-3.566 2.111-0.777 4.341-1.179 6.589-1.189 2.248 0.004 4.479 0.406 6.588 1.189 2.197 0.798 4.222 2.008 5.969 3.566 1.761 1.579 3.179 3.507 4.167 5.661 1.133 2.612 1.682 5.444 1.605 8.293v40.503c0.055 2.81-0.493 5.6-1.605 8.18-0.982 2.232-2.399 4.243-4.167 5.916v0zM814.369 205.496c0.092-1.080-0.057-2.166-0.436-3.18-0.381-1.014-0.982-1.93-1.76-2.679-1.458-1.223-3.297-1.892-5.196-1.892s-3.736 0.669-5.195 1.892c-0.779 0.749-1.38 1.665-1.76 2.679s-0.53 2.1-0.436 3.18v40.503c-0.093 1.080 0.056 2.166 0.436 3.18s0.981 1.929 1.76 2.679c1.458 1.222 3.296 1.892 5.195 1.892s3.738-0.67 5.196-1.892c0.778-0.75 1.379-1.665 1.76-2.679s0.529-2.1 0.436-3.18v-40.503zM905.653 187.409v76.674h-10.615l-13.938-40.587h-0.197l-14.051 40.587h-10.503v-76.674h10.953v46.644h0.197l10.728-32.974h5.463l10.812 32.974h0.197v-46.644h10.953zM967.881 258.707c-1.687 1.892-3.816 3.331-6.195 4.189-2.563 0.834-5.246 1.235-7.94 1.189h-16.274v-76.675h10.925v29.945h5.631c3.409-0.155 6.801 0.565 9.855 2.095 2.484 1.379 4.556 3.403 5.998 5.859 1.263 2.039 2.115 4.309 2.505 6.679 0.43 2.885 0.628 5.8 0.591 8.717 0.107 3.682-0.253 7.363-1.070 10.953-0.729 2.653-2.114 5.078-4.026 7.048v0zM962.249 235.329c-0.047-1.389-0.393-2.75-1.014-3.991-0.624-1.179-1.612-2.123-2.815-2.689-1.618-0.723-3.384-1.053-5.153-0.962h-4.983v26.067h5.631c1.696 0.083 3.386-0.247 4.927-0.963 1.13-0.648 2.027-1.638 2.562-2.83 0.598-1.347 0.923-2.799 0.957-4.273 0-1.614 0-3.312 0-5.096s0.112-3.623 0-5.264h-0.112zM1019.634 264.083h-8.954l-16.894-76.674h10.925l3.21 16.472h14.895l3.21-16.472h10.926l-17.317 76.674zM1009.553 214.325l5.378 27.794h0.197l5.35-27.794h-10.926zM1090.223 217.892h-0.197l-16.5 46.191h-10.503v-76.674h10.925v46.107h0.226l16.697-46.107h10.277v76.674h-10.925v-46.191zM1156.986 264.083l-8.793-30.483h-0.223l-8.782 30.483h-11.576l15.004-44.267v-32.407h10.93v32.407l15.004 44.267h-11.565zM723.478 165.758h5.266v-14.775h3.575v14.775h5.238v3.029h-14.079v-3.029zM767.741 168.786l-6.899-17.803h3.801l1.465 4.048h7.096l1.52-4.048h3.886l-7.068 17.803h-3.801zM767.177 158.031l2.422 6.595 2.421-6.595h-4.843zM811.497 157.548h4.112v-2.292c-1.201-0.963-2.688-1.491-4.224-1.5-0.718-0.040-1.435 0.092-2.091 0.388-0.657 0.295-1.233 0.745-1.682 1.31-0.944 1.355-1.409 2.989-1.323 4.641 0 3.962 1.717 5.944 5.124 5.944 0.897 0.089 1.796-0.147 2.534-0.666 0.739-0.52 1.268-1.288 1.493-2.165l3.519 0.679c-0.76 3.482-3.266 5.237-7.546 5.237-2.288 0.061-4.515-0.759-6.222-2.293-0.897-0.886-1.592-1.958-2.034-3.14s-0.623-2.449-0.529-3.71c-0.105-2.435 0.71-4.821 2.281-6.679 0.872-0.899 1.928-1.597 3.094-2.047s2.416-0.64 3.663-0.557c2.786-0.078 5.492 0.937 7.546 2.829v7.020h-7.716v-3.001zM856.182 168.786h-3.604v-17.803h12.473v3.029h-8.869v14.775zM893.969 168.786h-3.604v-17.803h3.604v17.803zM930.911 156.899l-7.293 11.887h-3.492v-17.803h3.35v11.634l7.152-11.634h3.576v17.803h-3.295v-11.887zM964.305 158.824h8.87v3.029h-8.87v3.906h9.545v3.029h-13.149v-17.803h13.516v3.029h-9.912v4.812zM1045.284 161.768h-7.011v7.019h-3.575v-17.803h3.575v7.784h7.011v-7.784h3.576v17.803h-3.576v-7.019zM1078.875 158.824h8.898v3.029h-8.898v3.906h9.573v3.029h-13.149v-17.803h13.487v3.029h-9.911v4.812zM1124.43 158.824c3.105 0.481 4.675 2.123 4.675 4.953 0.089 0.757-0.022 1.525-0.334 2.222-0.301 0.697-0.79 1.299-1.414 1.741-1.614 0.809-3.406 1.171-5.209 1.047h-7.546v-17.803h3.584v7.444h0.701c0.757 0.047 1.525-0.089 2.226-0.396 0.523-0.323 0.957-0.77 1.269-1.302l3.885-5.661h4.274l-2.17 3.482c-0.957 1.719-2.304 3.183-3.94 4.274v0zM1120.824 161.286h-2.638v4.472h2.816c1.224 0.099 2.46-0.046 3.629-0.425 0.256-0.229 0.467-0.515 0.601-0.836s0.2-0.668 0.178-1.016c-0.011-0.348-0.111-0.688-0.267-0.994-0.167-0.307-0.401-0.572-0.679-0.777-1.18-0.36-2.404-0.504-3.64-0.424v0zM1158.79 158.824h8.86v3.029h-8.86v3.906h9.572v3.029h-13.178v-17.803h13.512v3.029h-9.906v4.812z" />
<glyph unicode="&#xe919;" glyph-name="Client_3" horiz-adv-x="1892" d="M761.392 235.393c0.177-0.004 0.352-0.039 0.513-0.102s0.306-0.155 0.427-0.267l2.428-2.321c-1.884-1.878-4.213-3.38-6.827-4.404-3.062-1.116-6.362-1.655-9.681-1.582-3.119-0.056-6.217 0.446-9.104 1.477-2.603 0.946-4.942 2.366-6.859 4.166-1.956 1.867-3.463 4.055-4.431 6.435-1.061 2.653-1.584 5.446-1.547 8.254-0.043 2.826 0.523 5.634 1.668 8.28 1.061 2.395 2.659 4.582 4.704 6.435 2.072 1.815 4.551 3.243 7.284 4.193 2.989 1.007 6.172 1.508 9.377 1.477 2.977 0.062 5.939-0.394 8.71-1.345 2.403-0.906 4.61-2.164 6.525-3.719l-2.034-2.479c-0.14-0.175-0.315-0.326-0.516-0.449-0.239-0.142-0.53-0.208-0.819-0.185-0.315 0.019-0.619 0.11-0.879 0.264l-1.093 0.66-1.517 0.844c-0.656 0.313-1.335 0.587-2.034 0.817-0.9 0.28-1.823 0.501-2.761 0.659-1.191 0.191-2.401 0.279-3.612 0.264-2.307 0.026-4.598-0.351-6.736-1.107-1.995-0.7-3.794-1.761-5.28-3.111-1.514-1.437-2.68-3.123-3.429-4.959-0.855-2.099-1.277-4.313-1.244-6.539-0.037-2.262 0.384-4.511 1.244-6.646 0.74-1.819 1.884-3.495 3.368-4.931 1.39-1.339 3.113-2.385 5.038-3.060 1.981-0.713 4.107-1.072 6.252-1.054 1.238-0.017 2.477 0.053 3.702 0.21 2.001 0.213 3.92 0.817 5.614 1.768 0.849 0.486 1.651 1.033 2.397 1.635 0.312 0.258 0.722 0.408 1.153 0.422v0zM831.492 247.053c0.038-2.798-0.518-5.577-1.64-8.201-0.988-2.379-2.547-4.549-4.57-6.367-2.025-1.819-4.469-3.243-7.174-4.181-5.941-1.969-12.509-1.969-18.451 0-2.686 0.952-5.114 2.38-7.131 4.193-2.022 1.851-3.592 4.039-4.612 6.433-2.186 5.311-2.186 11.117 0 16.427 1.035 2.396 2.602 4.591 4.612 6.461 2.034 1.755 4.461 3.129 7.131 4.034 5.935 2.005 12.517 2.005 18.451 0 2.696-0.952 5.134-2.379 7.162-4.193 1.998-1.832 3.555-3.992 4.581-6.354 1.125-2.64 1.681-5.438 1.64-8.253zM825.119 247.053c0.048 2.238-0.342 4.467-1.153 6.593-0.68 1.82-1.785 3.498-3.247 4.931-1.422 1.355-3.174 2.418-5.129 3.111-4.316 1.441-9.096 1.441-13.413 0-1.953-0.693-3.705-1.756-5.128-3.111-1.483-1.424-2.599-3.104-3.278-4.931-1.544-4.293-1.544-8.892 0-13.185 0.686-1.824 1.802-3.504 3.278-4.931 1.425-1.347 3.177-2.401 5.128-3.085 4.325-1.405 9.089-1.405 13.413 0 1.952 0.685 3.704 1.739 5.129 3.085 1.455 1.436 2.56 3.113 3.247 4.931 0.815 2.125 1.204 4.354 1.153 6.593v0zM879.319 240.142l0.638-1.477c0.243 0.528 0.455 1.003 0.698 1.477 0.232 0.495 0.494 0.979 0.789 1.45l15.507 24.494c0.304 0.422 0.577 0.685 0.88 0.765 0.412 0.109 0.844 0.154 1.274 0.131h4.582v-39.838h-5.433v29.292c0 0.37 0 0.791 0 1.239-0.029 0.456-0.029 0.915 0 1.371l-15.598-24.836c-0.198-0.372-0.514-0.687-0.913-0.906-0.398-0.22-0.861-0.335-1.332-0.333h-0.88c-0.473-0.006-0.937 0.108-1.336 0.328s-0.715 0.536-0.91 0.91l-16.053 24.995c0-0.474 0-0.949 0-1.424s0-0.896 0-1.266v-29.292h-5.249v39.759h4.582c0.43 0.022 0.861-0.022 1.274-0.131 0.376-0.163 0.676-0.433 0.849-0.765l15.841-24.52c0.312-0.453 0.575-0.929 0.789-1.424v0zM937.676 242.121v-14.923h-6.069v39.785h13.535c2.556 0.042 5.103-0.25 7.556-0.869 1.965-0.484 3.787-1.329 5.341-2.479 1.348-1.077 2.387-2.413 3.034-3.902 0.717-1.623 1.067-3.35 1.032-5.088 0.027-1.745-0.355-3.476-1.122-5.089-0.73-1.526-1.851-2.888-3.278-3.981-1.557-1.197-3.387-2.096-5.372-2.636-2.363-0.657-4.834-0.968-7.314-0.923l-7.344 0.105zM937.676 246.393h7.344c1.596-0.019 3.183 0.186 4.704 0.605 1.254 0.367 2.411 0.951 3.399 1.714 0.912 0.73 1.618 1.632 2.064 2.637 0.496 1.063 0.745 2.2 0.728 3.348 0.071 1.106-0.137 2.212-0.609 3.241-0.471 1.028-1.195 1.957-2.121 2.717-2.318 1.573-5.231 2.335-8.164 2.136h-7.344v-16.398zM1019.248 227.145h-4.795c-0.481-0.016-0.954 0.115-1.336 0.37-0.344 0.248-0.614 0.564-0.789 0.923l-4.127 9.624h-20.726l-4.28-9.624c-0.157-0.352-0.419-0.661-0.758-0.897-0.386-0.269-0.87-0.41-1.366-0.395h-4.795l18.208 39.843h6.312l18.451-39.843zM989.205 241.938h17.115l-7.223 16.217c-0.552 1.22-1.008 2.471-1.366 3.744l-0.698-2.084c-0.213-0.632-0.455-1.213-0.668-1.687l-7.161-16.19zM1045.468 266.802c0.363-0.173 0.675-0.416 0.91-0.711l26.553-30.033c0 0.474 0 0.949 0 1.398 0 0.447 0 0.896 0 1.318v28.213h5.433v-39.841h-3.035c-0.431-0.011-0.858 0.070-1.244 0.237-0.374 0.19-0.705 0.441-0.971 0.738l-26.523 30.007c0.029-0.456 0.029-0.914 0-1.371 0-0.447 0-0.844 0-1.212v-28.398h-5.433v39.841h3.217c0.376 0.009 0.749-0.053 1.093-0.185v0zM1123.094 242.991v-15.821h-6.066v15.821l-16.785 23.994h5.433c0.467 0.024 0.931-0.097 1.304-0.342 0.331-0.256 0.608-0.56 0.819-0.897l10.497-15.478c0.423-0.659 0.79-1.266 1.091-1.845 0.312-0.58 0.557-1.134 0.768-1.687l0.79 1.714c0.289 0.627 0.634 1.234 1.024 1.819l10.351 15.584c0.211 0.311 0.479 0.594 0.79 0.844 0.356 0.273 0.824 0.415 1.302 0.395h5.498l-16.818-24.1zM876.315 333.845c2.64-0.291 5.31-0.528 8.012-0.739 40.947 15.915 75.587 41.964 99.588 74.889 24.003 32.926 36.303 71.268 35.364 110.234l-45.125 39.208c9.175-41.486 4.883-84.373-12.396-123.861-17.279-39.489-46.864-74.020-85.443-99.731v0zM860.201 335.668l1.214-0.21c41.225 25.62 72.656 61.397 90.229 102.704s20.476 86.245 8.337 129.002l-64.274 55.844c25.997-45.903 36.461-97.274 30.176-148.141s-29.063-99.137-65.682-139.198v0zM1078.182 472.192c-10.92-42.814-37.441-81.428-75.625-110.107-11.152-8.421-23.18-15.924-35.93-22.411 31.093 7.94 59.671 21.978 83.532 41.031s42.367 42.614 54.092 68.864l-26.069 22.623zM1067.955 478.496l-37.114 32.247c-0.709-36.765-12.739-72.694-34.838-104.053s-53.462-57.002-90.828-74.266h0.181c8.328 0.002 16.647 0.434 24.915 1.292 34.921 12.384 65.769 32.086 89.794 57.348 24.024 25.263 40.477 55.299 47.89 87.431v0zM865.573 646.557l-44.277 38.521c-39.581-13.289-73.622-36.65-97.668-67.027s-36.978-66.354-37.101-103.223v0c0.148-40.739 15.93-80.27 44.847-112.338s69.318-54.842 114.808-64.715c40.608 42.986 64.384 96.104 67.871 151.632 3.487 55.53-13.496 110.58-48.48 157.149v0zM1170.254 484.427c-0.156 48.334-22.328 94.648-61.666 128.825s-92.643 53.439-148.273 53.579v0c-25.706 0.023-51.193-4.098-75.169-12.154l271.084-235.532c9.283 20.819 14.035 42.956 14.024 65.283v0z" />
<glyph unicode="&#xe91a;" glyph-name="Client_4" horiz-adv-x="1892" d="M624.932 547.030h-0.032c-26.691 0-48.328-19.229-48.328-42.949v-0.028c0-23.72 21.638-42.949 48.328-42.949h0.032c26.691 0 48.328 19.229 48.328 42.949v0.028c0 23.72-21.638 42.949-48.328 42.949zM981.649 560.759c-0.076 32.946-14.834 64.524-41.045 87.822s-61.741 36.422-98.813 36.497v0c-37.083-0.059-72.628-13.175-98.853-36.477-26.226-23.3-40.992-54.886-41.068-87.843v0-181.68c0 0 279.747 27.689 279.778 181.652v0.028zM478.609 319.449c0.067-22.924 10.341-44.892 28.579-61.105s42.953-25.351 68.748-25.419v0c25.789 0.068 50.501 9.203 68.736 25.409s28.515 38.167 28.591 61.087v0 126.416c0 0-194.653-19.281-194.653-126.388zM575.935 296.8c-5.041 0-9.968 1.328-14.16 3.817s-7.457 6.026-9.386 10.165c-1.929 4.138-2.434 8.693-1.45 13.086s3.41 8.43 6.974 11.598c3.565 3.168 8.106 5.325 13.050 6.199s10.067 0.425 14.726-1.289c4.657-1.714 8.637-4.618 11.438-8.342s4.295-8.104 4.295-12.584c0.012-2.981-0.638-5.936-1.912-8.694-1.276-2.757-3.151-5.265-5.518-7.376-2.369-2.113-5.182-3.789-8.281-4.932s-6.42-1.733-9.775-1.733v0.086zM772.649 309.274h-18.783v-19.403h-9.783v47.478h30.913v-7.924h-21.13v-12.261h18.783v-7.89zM819.671 312.534c0-4.674-0.826-8.772-2.479-12.294s-4.021-6.239-7.109-8.152c-3.064-1.913-6.587-2.869-10.565-2.869-3.935 0-7.445 0.946-10.533 2.837-3.086 1.891-5.478 4.587-7.174 8.086-1.695 3.522-2.554 7.565-2.576 12.131v2.347c0 4.674 0.837 8.783 2.51 12.326 1.696 3.566 4.077 6.294 7.141 8.185 3.088 1.913 6.609 2.869 10.566 2.869s7.467-0.956 10.533-2.869c3.086-1.891 5.467-4.619 7.141-8.185 1.695-3.543 2.543-7.641 2.543-12.292v-2.12zM809.757 314.686c0 4.978-0.89 8.761-2.674 11.347-1.782 2.587-4.326 3.88-7.63 3.88-3.283 0-5.816-1.282-7.599-3.848-1.782-2.543-2.685-6.282-2.706-11.217v-2.315c0-4.847 0.892-8.608 2.674-11.282 1.783-2.675 4.348-4.011 7.696-4.011 3.282 0 5.805 1.282 7.565 3.848 1.761 2.587 2.652 6.348 2.674 11.283v2.315zM851.399 302.327c0 1.848-0.652 3.261-1.957 4.24-1.304 1-3.652 2.044-7.043 3.13-3.391 1.11-6.076 2.196-8.055 3.261-5.39 2.913-8.086 6.837-8.086 11.772 0 2.566 0.717 4.848 2.152 6.849 1.457 2.021 3.533 3.597 6.229 4.728 2.717 1.13 5.761 1.695 9.13 1.695 3.391 0 6.413-0.62 9.066-1.859 2.651-1.218 4.706-2.945 6.163-5.185 1.478-2.239 2.217-4.783 2.217-7.63h-9.783c0 2.174-0.685 3.858-2.055 5.054-1.369 1.217-3.293 1.825-5.771 1.825-2.392 0-4.251-0.511-5.576-1.533-1.327-1-1.989-2.326-1.989-3.978 0-1.544 0.771-2.837 2.315-3.88 1.565-1.044 3.859-2.022 6.88-2.935 5.565-1.674 9.62-3.75 12.163-6.229 2.543-2.478 3.816-5.565 3.816-9.261 0-4.108-1.555-7.337-4.664-9.685-3.108-2.326-7.293-3.489-12.554-3.489-3.652 0-6.978 0.663-9.978 1.989-3 1.348-5.294 3.184-6.88 5.511-1.566 2.326-2.349 5.022-2.349 8.087h9.816c0-5.239 3.13-7.859 9.391-7.859 2.326 0 4.142 0.467 5.446 1.402 1.304 0.956 1.957 2.283 1.957 3.978zM903.605 329.425h-14.544v-39.554h-9.783v39.554h-14.347v7.924h38.674v-7.924zM937.779 310.447h-18.783v-12.718h22.044v-7.858h-31.826v47.478h31.761v-7.924h-21.978v-11.315h18.783v-7.663zM964.355 307.251h-7.794v-17.38h-9.783v47.478h17.642c5.609 0 9.934-1.25 12.978-3.75s4.565-6.033 4.565-10.597c0-3.24-0.706-5.946-2.119-8.12-1.391-2.153-3.511-3.87-6.359-5.152l10.272-19.403v-0.456h-10.5l-8.902 17.38zM956.562 315.175h7.891c2.456 0 4.359 0.62 5.707 1.859 1.348 1.261 2.021 2.99 2.021 5.185 0 2.239-0.641 4-1.923 5.284-1.261 1.282-3.207 1.923-5.837 1.923h-7.859v-14.25zM1015.845 306.599v-16.728h-9.783v47.478h18.521c3.565 0 6.696-0.652 9.392-1.957 2.717-1.304 4.804-3.162 6.261-5.575 1.456-2.392 2.185-5.12 2.185-8.185 0-4.653-1.598-8.326-4.794-11.021-3.174-2.675-7.576-4.011-13.206-4.011h-8.576zM1015.845 314.523h8.739c2.588 0 4.555 0.609 5.902 1.827 1.369 1.218 2.055 2.956 2.055 5.217 0 2.326-0.686 4.207-2.055 5.642s-3.261 2.174-5.674 2.217h-8.967v-14.903zM1077.736 310.447h-18.783v-12.718h22.044v-7.858h-31.826v47.478h31.761v-7.924h-21.978v-11.315h18.783v-7.663zM1123.128 329.425h-14.544v-39.554h-9.783v39.554h-14.348v7.924h38.675v-7.924zM1157.298 310.447h-18.777v-12.718h22.038v-7.858h-31.822v47.478h31.755v-7.924h-21.971v-11.315h18.777v-7.663zM1183.878 307.251h-7.791v-17.38h-9.784v47.478h17.642c5.61 0 9.928-1.25 12.978-3.75 3.039-2.5 4.563-6.033 4.563-10.597 0-3.24-0.701-5.946-2.115-8.12-1.391-2.153-3.517-3.87-6.367-5.152l10.273-19.403v-0.456h-10.496l-8.904 17.38zM1176.086 315.175h7.891c2.449 0 4.352 0.62 5.699 1.859 1.358 1.261 2.026 2.99 2.026 5.185 0 2.239-0.646 4-1.926 5.284-1.258 1.282-3.206 1.923-5.832 1.923h-7.858v-14.25zM1233.575 302.327c0 1.848-0.657 3.261-1.959 4.24-1.302 1-3.651 2.044-7.046 3.13-3.384 1.11-6.077 2.196-8.047 3.261-5.398 2.913-8.092 6.837-8.092 11.772 0 2.566 0.712 4.848 2.148 6.849 1.458 2.021 3.539 3.597 6.233 4.728 2.716 1.13 5.766 1.695 9.127 1.695 3.395 0 6.411-0.62 9.071-1.859 2.649-1.218 4.708-2.945 6.155-5.185 1.48-2.239 2.226-4.783 2.226-7.63h-9.784c0 2.174-0.69 3.858-2.059 5.054-1.369 1.217-3.295 1.825-5.766 1.825-2.393 0-4.252-0.511-5.576-1.533-1.336-1-1.992-2.326-1.992-3.978 0-1.544 0.768-2.837 2.315-3.88 1.569-1.044 3.862-2.022 6.879-2.935 5.565-1.674 9.617-3.75 12.166-6.229 2.538-2.478 3.818-5.565 3.818-9.261 0-4.108-1.558-7.337-4.664-9.685-3.117-2.326-7.302-3.489-12.555-3.489-3.651 0-6.979 0.663-9.984 1.989-2.994 1.348-5.287 3.184-6.879 5.511-1.569 2.326-2.349 5.022-2.349 8.087h9.817c0-5.239 3.128-7.859 9.394-7.859 2.326 0 4.141 0.467 5.443 1.402 1.302 0.956 1.959 2.283 1.959 3.978z" />
<glyph unicode="&#xe91b;" glyph-name="Client_5" horiz-adv-x="1892" d="M653.99 283.991c2.712-3.074 4.157-6.923 4.082-10.874 0.138-2.577-0.358-5.15-1.454-7.528-1.094-2.377-2.759-4.499-4.871-6.209-5.269-3.643-11.796-5.424-18.384-5.015h-32.319v68.913h31.657c6.25 0.381 12.448-1.238 17.539-4.578 2.044-1.567 3.663-3.547 4.728-5.784 1.066-2.238 1.549-4.671 1.411-7.11 0.186-3.801-1.117-7.539-3.676-10.537-2.456-2.738-5.851-4.636-9.633-5.386 4.287-0.717 8.157-2.805 10.92-5.891zM616.082 294.393h13.53c3.075-0.208 6.13 0.604 8.604 2.29 1.016 0.843 1.806 1.889 2.311 3.056 0.503 1.168 0.707 2.425 0.594 3.676 0.096 1.247-0.112 2.497-0.608 3.662-0.496 1.164-1.268 2.213-2.261 3.071-2.548 1.733-5.697 2.558-8.861 2.323h-13.31v-18.078zM639.54 267.965c1.085 0.864 1.939 1.944 2.494 3.159 0.554 1.214 0.796 2.53 0.705 3.844 0.082 1.329-0.169 2.658-0.737 3.883s-1.435 2.316-2.536 3.186c-2.648 1.798-5.904 2.68-9.193 2.492h-14.192v-18.954h14.376c3.236-0.171 6.439 0.672 9.082 2.39zM718.702 254.365l-17.612 26.932h-6.618v-26.932h-15.149v68.913h28.679c7.229 0.462 14.376-1.635 19.966-5.858 4.008-3.74 6.427-8.668 6.817-13.896s-1.27-10.413-4.685-14.619c-3.538-3.711-8.372-6.185-13.678-7.002l18.751-27.538h-16.472zM694.472 290.69h12.39c8.604 0 12.906 3.478 12.906 10.436 0.088 1.42-0.148 2.843-0.692 4.176-0.544 1.332-1.386 2.548-2.47 3.567-2.719 2.070-6.221 3.074-9.744 2.794h-12.538l0.148-20.973zM801.505 268.237h-30.187l-5.331-13.871h-15.884l27.724 68.139h17.171l27.612-68.139h-15.883l-5.221 13.871zM797.46 278.673l-11.030 29.087-11.030-29.087h22.061zM905.154 254.365h-15.038l-33.716 46.862v-46.862h-15.002v68.914h15.002l33.716-47.133v47.133h15.038v-68.914zM990.972 270.86c-3.11-5.202-7.847-9.435-13.605-12.153-6.546-3.027-13.811-4.519-21.141-4.343h-26.768v68.914h26.768c7.318 0.175 14.573-1.281 21.141-4.242 5.757-2.657 10.499-6.846 13.605-12.019 3.095-5.605 4.708-11.797 4.708-18.078s-1.613-12.474-4.708-18.079zM973.764 272.51c4.292 4.578 6.652 10.413 6.652 16.446s-2.36 11.867-6.652 16.445c-5.188 4.147-11.953 6.252-18.826 5.858h-10.441v-44.607h10.441c6.873-0.393 13.638 1.712 18.826 5.858zM810.917 706.597c0 0 194.1-67.096 189.982-164.188v-164.221c0 0-193.952 67.129-189.909 164.221l-0.073 164.188zM1173.816 416.633c36.664 23.099 79.059 37.406 123.325 41.611v51.408c-51-17.998-94.264-50.631-123.325-93.019zM1151.8 401.146c29.997 55.317 82.009 98.002 145.341 119.277v148.129c0 0-276.424-95.577-270.578-233.842v-233.808c0 0 12.317 4.275 31.694 12.288 0 7.473 0 15.014 0.883 22.589 5.721 64.189 39.049 123.67 92.66 165.366zM1125.51 314.289c1.447 16.215 4.686 32.255 9.672 47.873-33.385-36.008-53.6-80.689-57.805-127.762-0.405-4.444-0.626-8.888-0.736-13.467 15.699 6.902 33.973 15.52 53.165 25.653-4.897 22.271-6.344 45.062-4.296 67.702zM1136.495 313.448c-1.837-20.483-0.69-41.1 3.428-61.305 75.52 41.375 160.378 105.306 157.106 182.569v6.733c-53.96-5.527-104.437-27.125-143.694-61.473-9.183-21.286-14.859-43.706-16.84-66.523z" />
<glyph unicode="&#xe91c;" glyph-name="Client_6" horiz-adv-x="1892" d="M950.817 476.848c-4.932 6.565-7.292 14.324-6.731 22.134v32.091c0 9.837 2.231 17.313 6.693 22.428s12.125 7.661 22.99 7.639c10.21 0 17.457-2.176 21.742-6.529 4.675-5.554 6.949-12.346 6.428-19.196v-7.542h-18.263v7.64c0.065 2.5-0.112 5.001-0.53 7.475-0.263 1.693-1.182 3.258-2.609 4.44-1.875 1.274-4.237 1.892-6.617 1.731-2.502 0.161-4.984-0.491-6.958-1.829-1.591-1.31-2.651-3.026-3.025-4.896-0.524-2.62-0.765-5.276-0.718-7.934v-38.947c-0.288-3.758 0.518-7.517 2.344-10.937 0.908-1.156 2.169-2.074 3.645-2.65 1.475-0.577 3.105-0.789 4.712-0.614 2.34-0.166 4.661 0.467 6.466 1.763 1.488 1.276 2.445 2.94 2.723 4.734 0.426 2.583 0.617 5.192 0.568 7.802v7.9h18.263v-7.215c0.513-7.141-1.705-14.229-6.314-20.175-4.197-4.767-11.344-7.15-21.856-7.15s-18.453 2.547-22.952 7.836zM1026.859 476.521c-4.614 4.995-6.92 12.276-6.92 21.906v33.756c0 9.532 2.306 16.747 6.92 21.644 4.612 4.897 12.327 7.335 23.14 7.313 10.739 0 18.415-2.438 23.028-7.313 4.614-4.897 6.958-12.112 6.958-21.644v-33.756c0-9.532-2.344-16.845-7.033-21.872-4.688-5.028-12.326-7.542-22.952-7.542s-18.49 2.547-23.14 7.509zM1058.508 484.617c1.652 3.129 2.404 6.556 2.194 9.99v41.331c0.211 3.367-0.529 6.728-2.156 9.794-0.926 1.181-2.219 2.114-3.73 2.691s-3.18 0.776-4.816 0.573c-1.641 0.197-3.312-0.003-4.828-0.58s-2.816-1.506-3.754-2.685c-1.663-3.056-2.416-6.422-2.193-9.794v-41.527c-0.23-3.435 0.523-6.865 2.193-9.99 1.064-1.053 2.379-1.897 3.852-2.475s3.074-0.877 4.694-0.877c1.618 0 3.219 0.299 4.693 0.877s2.788 1.422 3.852 2.475v0.196zM1101.952 560.155h19.662l14.781-62.281 15.126 62.281h19.133l1.937-89.897h-14.147l-1.514 62.477-14.592-62.477h-11.342l-15.126 62.707-1.402-62.707h-14.293l1.776 89.897zM1194.63 560.155h30.631c17.642 0 26.468-8.508 26.468-25.527 0-16.299-9.294-24.438-27.871-24.416h-10.429v-39.955h-18.911l0.111 89.897zM1220.797 521.735c1.87-0.205 3.762-0.057 5.565 0.434 1.792 0.49 3.439 1.311 4.831 2.405 2.17 3.036 3.128 6.603 2.727 10.152 0.1 2.743-0.211 5.485-0.913 8.161-0.267 0.894-0.735 1.732-1.391 2.467-0.646 0.735-1.458 1.349-2.382 1.81-2.627 1.086-5.532 1.581-8.437 1.436h-7.335v-26.864h7.335zM1278.987 560.155h20.313l20.836-89.897h-17.631l-4.118 20.728h-18.109l-4.241-20.728h-17.875l20.825 89.897zM1296.351 501.398l-7.079 37.734-7.068-37.734h14.147zM1336.954 560.155h13.234l25.333-51.281v51.281h15.694v-89.897h-12.589l-25.489 53.534v-53.534h-16.217l0.033 89.897zM1427.968 504.534l-21.059 55.495h17.742l12.856-35.647 12.054 35.647h17.363l-20.803-55.495v-34.276h-18.154v34.276zM980.009 430.953v-4.701h-15.427v-36.529h-6.467v36.529h-15.502v4.701h37.396zM1028.371 389.719h-4.992c-0.506-0.027-1.006 0.112-1.399 0.392-0.377 0.239-0.666 0.568-0.831 0.946l-4.462 9.794h-21.402l-4.462-9.794c-0.127-0.41-0.36-0.788-0.681-1.11-0.395-0.273-0.893-0.412-1.398-0.392h-4.992l18.906 41.228h6.58l19.133-41.065zM997.061 405.029h17.849l-7.563 16.778c-0.558 1.269-1.025 2.567-1.399 3.885-0.265-0.784-0.492-1.534-0.718-2.187l-0.681-1.73-7.487-16.746zM1060.965 393.768c1.184-0.053 2.371-0.053 3.554 0 1.023 0.091 2.035 0.255 3.025 0.49 0.926 0.197 1.837 0.447 2.723 0.751 0.833 0.294 1.664 0.653 2.533 1.012v9.273h-7.562c-0.187-0.010-0.374 0.014-0.55 0.071s-0.336 0.142-0.471 0.255c-0.125 0.092-0.223 0.208-0.288 0.338s-0.097 0.27-0.090 0.413v3.167h14.671v-15.802c-1.198-0.739-2.462-1.395-3.781-1.959-1.348-0.574-2.753-1.044-4.197-1.404-1.546-0.393-3.128-0.677-4.727-0.849-1.833-0.176-3.675-0.263-5.52-0.26-3.261-0.024-6.497 0.496-9.53 1.534-2.83 0.983-5.403 2.449-7.562 4.31-2.105 1.88-3.762 4.098-4.877 6.529-1.192 2.734-1.782 5.634-1.74 8.554-0.040 2.938 0.536 5.859 1.702 8.619 1.087 2.443 2.748 4.667 4.877 6.529 2.158 1.855 4.732 3.31 7.563 4.277 3.238 1.052 6.674 1.572 10.133 1.535 1.761 0.001 3.518-0.119 5.256-0.36 1.537-0.216 3.045-0.567 4.5-1.045 1.322-0.429 2.59-0.976 3.781-1.632 1.159-0.644 2.259-1.365 3.29-2.155l-1.815-2.547c-0.142-0.233-0.354-0.429-0.613-0.565-0.259-0.138-0.557-0.214-0.861-0.218-0.419 0.011-0.825 0.125-1.172 0.326-0.568 0.262-1.172 0.588-1.853 0.979-0.804 0.435-1.652 0.807-2.533 1.11-1.126 0.391-2.291 0.697-3.478 0.915-1.584 0.252-3.192 0.372-4.803 0.358-2.494 0.024-4.971-0.364-7.297-1.142-2.105-0.729-4.001-1.843-5.559-3.265-1.567-1.483-2.765-3.228-3.517-5.127-1.688-4.464-1.688-9.278 0-13.744 0.828-1.939 2.116-3.708 3.782-5.191 1.55-1.415 3.433-2.528 5.521-3.265 2.404-0.713 4.952-0.991 7.486-0.817v0zM1121.235 394.423h20.647v-4.7h-26.958v41.23h6.467l-0.156-36.53zM1163.364 389.722h-6.467v41.23h6.467v-41.23zM1187.406 430.757c0.39-0.189 0.723-0.445 0.991-0.751l27.637-31.080c-0.033 0.489-0.033 0.979 0 1.469 0 0.456 0 0.914 0 1.338v29.382h5.632v-41.396h-3.25c-0.479-0.033-0.968 0.046-1.402 0.229-0.39 0.205-0.735 0.471-1.013 0.784l-27.603 31.047c0-0.49 0-0.947 0-1.405 0-0.456 0-0.882 0-1.273v-29.382h-5.409v41.234h3.361c0.367-0.001 0.723-0.068 1.057-0.196v0zM1269.27 430.953v-4.538h-22.906v-13.614h18.566v-4.374h-18.566v-14.070h22.906v-4.538h-29.562v41.134h29.562zM591.713 685.574l287.111-70.381v-246.628l-287.111 70.349v246.66zM573.299 706.597v-279.664l323.902-79.423v279.631l-323.902 79.457zM746.896 217.687l-323.939 79.49v279.634l323.939-79.458v-279.667zM578.668 688.74l283.366-69.498-120.508-104.068-283.404 69.532 120.546 104.035zM573.299 706.597l-150.342-129.792 323.939-79.455 150.304 129.791-323.901 79.456zM765.122 233.419l132.078 114.057-132.078 32.414v-146.471z" />
<glyph unicode="&#xe91d;" d="M1001.492 470.36c-0.056 270.476-219.367 489.695-489.852 489.64-270.476-0.055-489.695-219.374-489.64-489.851 0.047-213.055 137.82-401.633 340.781-466.438 1.937-0.61 3.953-0.922 5.977-0.914 3.859 0.007 7.641 1.039 10.96 3 4.321 2.554 7.547 6.617 9.062 11.406l123.68 392c33.812 0.171 61.079 27.726 60.899 61.531-0.173 33.812-27.718 61.079-61.531 60.906-9.095-0.038-18.071-2.133-26.242-6.125l-163.391 163.414c-8.11 7.828-21.024 7.601-28.852-0.5-7.641-7.914-7.641-20.445 0-28.359l163.305-163.492c-12.531-25.578-5.367-56.453 17.164-73.89l-117.843-373.532c-232.891 85.789-352.141 344.125-266.351 577.015s344.124 352.141 577.016 266.352 352.14-344.133 266.351-577.016c-41.914-113.781-128.031-205.796-238.788-255.149l-12.736 59.977c-2.327 11.023-13.163 18.071-24.187 15.734-3.477-0.743-6.703-2.376-9.359-4.743l-122.781-109.618c-8.423-7.491-9.172-20.389-1.672-28.812 2.437-2.734 5.562-4.765 9.062-5.882l156.757-50.031c10.727-3.445 22.219 2.453 25.664 13.188 1.094 3.391 1.274 7 0.54 10.484l-12.516 58.851c181.258 76.415 298.945 254.149 298.524 450.853zM511.75 490.765c11.265 0 20.407-9.14 20.407-20.405 0-11.274-9.141-20.407-20.407-20.407-11.273 0-20.405 9.133-20.405 20.407 0 11.265 9.133 20.405 20.405 20.405zM578.961 15.117l69.891 62.344 19.289-90.89-89.18 28.546z" />
<glyph unicode="&#xe91e;" d="M491.343 858.078v-40.812c0-11.274 9.133-20.406 20.405-20.406 11.267 0 20.407 9.133 20.407 20.406v40.812c0 11.266-9.14 20.406-20.407 20.406-11.273 0-20.405-9.141-20.405-20.406z" />
<glyph unicode="&#xe91f;" d="M124.031 490.767c-11.274 0-20.406-9.141-20.406-20.407 0-11.273 9.133-20.407 20.406-20.407h40.812c11.274 0 20.407 9.134 20.407 20.407 0 11.265-9.133 20.407-20.407 20.407h-40.812z" />
<glyph unicode="&#xe920;" d="M899.46 449.953c11.274 0 20.407 9.134 20.407 20.407 0 11.265-9.133 20.407-20.407 20.407h-40.812c-11.265 0-20.407-9.141-20.407-20.407 0-11.273 9.141-20.407 20.407-20.407h40.812z" />
<glyph unicode="&#xe921;" d="M477.617 481.132h34.115v-153.52h-34.115v153.52z" />
<glyph unicode="&#xe922;" d="M614.078 412.902h34.115v-85.289h-34.115v85.289z" />
<glyph unicode="&#xe923;" d="M341.154 361.728h34.115v-34.115h-34.115v34.115z" />
<glyph unicode="&#xe924;" d="M238.809 378.786h34.115v-51.172h-34.115v51.172z" />
<glyph unicode="&#xe925;" d="M51.173 54.689h818.772c28.259 0 51.172 22.913 51.172 51.174v68.231c0 28.261-22.913 51.174-51.172 51.174h-17.058v425.386l96.891 91.786c22.489-11.087 49.708-4.356 64.424 15.958 14.727 20.306 12.661 48.266-4.88 66.19s-45.444 20.598-66.074 6.33c-20.622-14.276-27.952-41.336-17.357-64.066l-73.004-69.206v39.355c0 28.259-22.913 51.172-51.174 51.172h-682.309c-28.26 0-51.173-22.913-51.173-51.172v-511.732h-17.058c-28.26 0-51.173-22.913-51.173-51.174v-68.231c0-28.261 22.913-51.174 51.173-51.174zM972.291 805.23c9.419 0 17.057-7.638 17.057-17.058s-7.638-17.057-17.057-17.057c-9.421 0-17.058 7.638-17.058 17.057 0 9.421 7.638 17.058 17.058 17.058zM102.346 736.999c0 9.419 7.638 17.057 17.058 17.057h682.309c9.421 0 17.058-7.638 17.058-17.057v-71.638l-34.115-32.417v69.939c0 9.419-7.638 17.057-17.058 17.057h-614.078c-9.42 0-17.058-7.638-17.058-17.057v-426.443c0-9.421 7.638-17.058 17.058-17.058h614.078c9.421 0 17.058 7.638 17.058 17.058v309.579l34.115 32.325v-393.077h-716.425v511.732zM255.865 515.248c-23.079 0.067-43.343-15.309-49.481-37.554-6.14-22.247 3.365-45.843 23.213-57.62 19.839-11.777 45.117-8.82 61.7 7.229l59.294-29.75c6.889-3.449 15.242-1.833 20.364 3.922l126.043 141.801 123.901-92.842c6.647-4.981 15.925-4.449 21.956 1.257l107.685 102.005v-260.197h-579.963v392.328h579.963v-85.131l-120.687-114.29-124.943 93.668c-7.096 5.313-17.083 4.314-22.98-2.307l-127.775-143.767-47.767 23.887c0.35 2.049 0.566 4.115 0.65 6.189 0 28.259-22.913 51.172-51.174 51.172zM272.924 464.075c0-9.421-7.638-17.058-17.058-17.058-9.419 0-17.057 7.638-17.057 17.058 0 9.419 7.638 17.057 17.057 17.057 9.421 0 17.058-7.638 17.058-17.057zM375.27 191.152h170.578v-17.058c0-9.419-7.638-17.057-17.058-17.057h-136.461c-9.421 0-17.058 7.638-17.058 17.057v17.058zM34.115 174.093c0 9.421 7.638 17.058 17.058 17.058h289.981v-17.058c0-28.259 22.913-51.174 51.174-51.174h136.461c28.261 0 51.174 22.914 51.174 51.174v17.058h289.982c9.419 0 17.057-7.638 17.057-17.058v-68.231c0-9.421-7.638-17.058-17.057-17.058h-818.772c-9.42 0-17.058 7.638-17.058 17.058v68.231z" />
<glyph unicode="&#xe926;" glyph-name="envelope" horiz-adv-x="1365" d="M1237.333 960h-1109.332c-70.584 0-128.001-57.417-128.001-128.001v-767.999c0-70.579 57.417-128 128.001-128h1109.332c70.579 0 128 57.421 128 128v767.999c0 70.584-57.421 128.001-128 128.001zM1237.333 874.667c5.794 0 11.307-1.203 16.35-3.303l-571.017-494.906-571.023 494.906c5.042 2.097 10.557 3.303 16.354 3.303h1109.335zM1237.333 21.333h-1109.332c-23.541 0-42.668 19.123-42.668 42.667v717.209l569.375-493.458c8.043-6.956 18-10.417 27.959-10.417s19.916 3.457 27.959 10.417l569.375 493.458v-717.209c0-23.543-19.123-42.667-42.667-42.667z" />
<glyph unicode="&#xe927;" d="M1024 448.002c0-141.386-57.307-269.386-149.96-362.040-92.656-92.653-220.656-149.96-362.040-149.96s-269.384 57.307-362.039 149.96c-92.654 92.653-149.961 220.653-149.961 362.040 0 141.384 57.307 269.384 149.961 362.038s220.655 149.961 362.039 149.961c141.384 0 269.384-57.307 362.040-149.961 92.653-92.654 149.96-220.654 149.96-362.038z" />
<glyph unicode="&#xe928;" d="M589.519 603.443h42.491v74.007c-7.331 1.008-32.542 3.277-61.905 3.277-61.265 0-103.233-38.535-103.233-109.363v-65.182h-67.607v-82.735h67.607v-208.175h82.89v208.156h64.873l10.298 82.735h-75.192v56.997c0.021 23.913 6.458 40.283 39.778 40.283z" />
<glyph unicode="&#xe929;" d="M1024 448.002c0-141.386-57.307-269.386-149.96-362.040-92.656-92.653-220.656-149.96-362.040-149.96s-269.384 57.307-362.039 149.96c-92.654 92.653-149.961 220.653-149.961 362.040 0 141.384 57.307 269.384 149.961 362.038s220.655 149.961 362.039 149.961c141.384 0 269.384-57.307 362.040-149.961 92.653-92.654 149.96-220.654 149.96-362.038z" />
<glyph unicode="&#xe92a;" d="M744.271 543.881c-1.089 24.732-5.090 41.735-10.817 56.469-5.911 15.637-15.004 29.64-26.917 41.279-11.639 11.82-25.733 21.006-41.19 26.824-14.818 5.727-31.732 9.728-56.462 10.817-24.916 1.182-32.826 1.457-96.021 1.457s-71.105-0.275-95.928-1.364c-24.732-1.091-41.735-5.094-56.464-10.819-15.642-5.909-29.642-15.002-41.281-26.915-11.82-11.639-21.004-25.733-26.824-41.19-5.73-14.822-9.728-31.732-10.819-56.464-1.182-24.916-1.455-32.826-1.455-96.021 0-63.192 0.272-71.103 1.364-95.928 1.089-24.73 5.092-41.733 10.822-56.467 5.909-15.637 15.092-29.64 26.913-41.279 11.639-11.82 25.733-21.006 41.19-26.824 14.82-5.727 31.732-9.728 56.467-10.817 24.82-1.094 32.733-1.364 95.928-1.364s71.103 0.27 95.928 1.364c24.732 1.089 41.733 5.090 56.462 10.817 31.281 12.095 56.013 36.827 68.108 68.103 5.725 14.822 9.728 31.737 10.819 56.467 1.089 24.825 1.364 32.735 1.364 95.928 0 63.195-0.093 71.105-1.185 95.928zM702.357 353.846c-1.001-22.733-4.82-35.007-8.001-43.19-7.822-20.278-23.915-36.371-44.193-44.193-8.183-3.184-20.547-7-43.19-7.999-24.55-1.094-31.914-1.364-94.017-1.364s-69.56 0.27-94.022 1.364c-22.73 0.998-35.007 4.815-43.19 7.999-10.091 3.728-19.277 9.64-26.731 17.368-7.729 7.547-13.64 16.64-17.368 26.731-3.181 8.183-7 20.55-7.999 43.19-1.094 24.55-1.364 31.916-1.364 94.022 0 62.103 0.27 69.558 1.364 94.017 0.998 22.73 4.817 35.007 7.999 43.19 3.728 10.093 9.64 19.274 17.462 26.733 7.543 7.729 16.635 13.64 26.731 17.366 8.183 3.181 20.55 7 43.19 8.001 24.55 1.091 31.916 1.364 94.017 1.364 62.196 0 69.558-0.272 94.019-1.364 22.733-1.001 35.007-4.82 43.192-8.001 10.089-3.726 19.274-9.637 26.731-17.366 7.727-7.547 13.638-16.64 17.368-26.733 3.181-8.183 7-20.547 8.001-43.19 1.091-24.55 1.364-31.914 1.364-94.017 0-62.106-0.272-69.378-1.364-93.929z" />
<glyph unicode="&#xe92b;" d="M512.863 567.524c-66.011 0-119.568-53.555-119.568-119.568 0-66.015 53.558-119.568 119.568-119.568 66.015 0 119.571 53.553 119.571 119.568 0 66.013-53.555 119.568-119.571 119.568zM512.863 370.395c-42.824 0-77.561 34.732-77.561 77.561 0 42.826 34.737 77.561 77.561 77.561 42.829 0 77.561-34.735 77.561-77.561 0-42.829-34.732-77.561-77.561-77.561z" />
<glyph unicode="&#xe92c;" d="M665.076 572.251c0-15.416-12.5-27.913-27.918-27.913-15.416 0-27.913 12.497-27.913 27.913 0 15.418 12.497 27.913 27.913 27.913 15.418 0 27.918-12.495 27.918-27.913z" />
<glyph unicode="&#xe92d;" d="M1024 448.002c0-141.386-57.307-269.386-149.96-362.040-92.656-92.653-220.656-149.96-362.040-149.96s-269.384 57.307-362.039 149.96c-92.654 92.653-149.961 220.653-149.961 362.040 0 141.384 57.307 269.384 149.961 362.038s220.655 149.961 362.039 149.961c141.384 0 269.384-57.307 362.040-149.961 92.653-92.654 149.96-220.654 149.96-362.038z" />
<glyph unicode="&#xe92e;" d="M744.611 215.273v0.019h0.116v170.705c0 83.51-17.978 147.84-115.607 147.84-46.934 0-78.429-25.756-91.287-50.171h-1.357v42.375h-92.567v-310.749h96.386v153.872c0 40.513 7.68 79.688 57.854 79.688 49.434 0 50.171-46.234 50.171-82.288v-151.291h96.291z" />
<glyph unicode="&#xe92f;" d="M286.953 526.022h96.505v-310.749h-96.505v310.749z" />
<glyph unicode="&#xe930;" d="M335.167 680.727c-30.857 0-55.894-25.037-55.894-55.894 0-30.855 25.037-56.415 55.894-56.415 30.855 0 55.892 25.56 55.892 56.415-0.019 30.857-25.055 55.894-55.892 55.894v0z" />
<glyph unicode="&#xe931;" glyph-name="smartphone" horiz-adv-x="640" d="M544 960h-448c-52.938 0-96-43.062-96-96v-832c0-52.941 43.062-96 96-96h448c52.938 0 96 43.059 96 96v832c0 52.938-43.062 96-96 96zM96 896h448c17.656 0 32-14.344 32-32v-672h-512v672c0 17.656 14.344 32 32 32zM544 0h-448c-17.656 0-32 14.342-32 32v96h512v-96c0-17.658-14.344-32-32-32zM150.627 80.71c12.497-11.674 12.497-30.592 0-42.259-12.497-11.674-32.757-11.674-45.254 0-12.497 11.667-12.497 30.586 0 42.259 12.497 11.667 32.757 11.667 45.254 0z" />
<glyph unicode="&#xe932;" d="M1024 448.002c0-141.386-57.307-269.386-149.96-362.040-92.656-92.653-220.656-149.96-362.040-149.96s-269.384 57.307-362.039 149.96c-92.654 92.653-149.961 220.653-149.961 362.040 0 141.384 57.307 269.384 149.961 362.038s220.655 149.961 362.039 149.961c141.384 0 269.384-57.307 362.040-149.961 92.653-92.654 149.96-220.654 149.96-362.038z" />
<glyph unicode="&#xe933;" d="M744.727 592.319c-17.308-7.592-35.754-12.623-54.982-15.067 19.782 11.809 34.881 30.371 41.977 52.741-18.441-10.996-38.805-18.765-60.509-23.098-17.513 18.646-42.473 30.196-69.702 30.196-52.827 0-95.36-42.88-95.36-95.448 0-7.561 0.64-14.834 2.213-21.758-79.332 3.868-149.527 41.889-196.685 99.81-8.234-14.285-13.061-30.634-13.061-48.233 0-33.047 17.017-62.341 42.384-79.302-15.332 0.291-30.371 4.741-43.113 11.753 0-0.291 0-0.668 0-1.047 0-46.371 33.075-84.887 76.451-93.759-7.768-2.125-16.233-3.142-25.018-3.142-6.109 0-12.276 0.347-18.067 1.629 12.365-37.79 47.448-65.573 89.165-66.474-32.465-25.398-73.686-40.697-118.312-40.697-7.827 0-15.332 0.347-22.838 1.308 42.268-27.259 92.365-42.822 146.385-42.822 175.593 0 271.593 145.455 271.593 271.535 0 4.219-0.144 8.29-0.349 12.335 18.939 13.44 34.851 30.224 47.825 49.541z" />
</font>
</defs>
</svg>
